<svg xmlns="http://www.w3.org/2000/svg" viewBox="0 0 185.26 27.13" fill="white"><title>logo_website_TGL</title><g id="Layer_2" data-name="Layer 2"><g id="Layer_1-2" data-name="Layer 1"><g id="Logo"><path d="M0,13.56C0,5.8,5.92,0,13.79,0a12.74,12.74,0,0,1,9.15,3.42L22.48,4A12,12,0,0,0,13.79.73a12.68,12.68,0,0,0-13,12.83,12.69,12.69,0,0,0,13,12.84,12.07,12.07,0,0,0,8.69-3.27l.46.54a12.81,12.81,0,0,1-9.15,3.46A13.36,13.36,0,0,1,0,13.56Z"/><path d="M26.17,17.06c0-5.88,4.11-10,9.64-10s9.64,4.15,9.64,10-4.11,10.07-9.64,10.07S26.17,22.94,26.17,17.06Zm18.52,0c0-5.5-3.81-9.3-8.88-9.3s-8.88,3.8-8.88,9.3,3.81,9.34,8.88,9.34S44.69,22.55,44.69,17.06Z"/><path d="M69,15.29V27h-.77V15.29c0-4.92-2.65-7.53-7.15-7.53-5.22,0-8.38,3.42-8.38,8.45V27H52V7.15h.76v5.3C53.91,9.14,56.83,7,61.05,7,65.93,7,69,9.91,69,15.29Z"/><path d="M92.1,7.15,83,27h-.76L73,7.15h.88l8.65,19,8.64-19Z"/><path d="M110.58,23.32l.54.54a9.36,9.36,0,0,1-7.34,3.27,9.68,9.68,0,0,1-10-10.07c0-5.88,3.92-10,9.45-10,5.15,0,8.64,4.07,9,8.88L94.83,19.33a8.79,8.79,0,0,0,9,7.07A8.33,8.33,0,0,0,110.58,23.32Zm-16-6.38a13.09,13.09,0,0,0,.11,1.69l16.79-3.3a8.27,8.27,0,0,0-8.18-7.57C98.17,7.76,94.56,11.68,94.56,16.94Z"/><path d="M127.33,7V7.8h-.23c-4.76,0-7.57,3.27-7.57,8.53V27h-.77V7.15h.77v5.14C120.65,9,123.33,7,127.33,7Z"/><path d="M141.55,25.7a5.51,5.51,0,0,1-3.88,1.43c-3.15,0-4.81-2-4.81-4.88V2.8h.77V7.15h6.73v.73h-6.73V22.05c0,2.81,1.39,4.35,4.08,4.35a4.8,4.8,0,0,0,3.3-1.23Z"/><path d="M152.26.15h6.26l-5.38,26.9h-6.26Z"/><path d="M169.4,5.23h-8.61l1-5.08h23.43l-1,5.08h-8.57l-4.38,21.82h-6.23Z"/></g></g></g></svg>