<svg xmlns="http://www.w3.org/2000/svg" xmlns:xlink="http://www.w3.org/1999/xlink" viewBox="0 0 1096.94 765.41"><defs><style>.cls-1{fill:url(#linear-gradient);}.cls-2{fill:url(#linear-gradient-2);}.cls-3{fill:none;}.cls-4{isolation:isolate;}.cls-5{clip-path:url(#clip-path);}.cls-13,.cls-6{opacity:0.5;mix-blend-mode:color-dodge;}.cls-6{fill:url(#linear-gradient-4);}.cls-7{fill:url(#linear-gradient-5);}.cls-8{fill:url(#linear-gradient-6);}.cls-9{fill:url(#linear-gradient-7);}.cls-10{mix-blend-mode:overlay;}.cls-11{fill:#fff;}.cls-12{clip-path:url(#clip-path-2);}.cls-13{fill:url(#linear-gradient-9);}.cls-14{fill:url(#linear-gradient-10);}.cls-15{fill:url(#linear-gradient-11);}.cls-16{fill:url(#linear-gradient-12);}.cls-17{clip-path:url(#clip-path-3);}.cls-18,.cls-19{opacity:0.15;}.cls-18{fill:url(#linear-gradient-13);}.cls-19{fill:url(#linear-gradient-14);}</style><linearGradient id="linear-gradient" x1="437.22" y1="714.25" x2="731.5" y2="-148.18" gradientUnits="userSpaceOnUse"><stop offset="0" stop-color="#0c042e"/><stop offset="0.33" stop-color="#221c3a"/><stop offset="1" stop-color="#575757"/></linearGradient><linearGradient id="linear-gradient-2" x1="437.22" y1="1514.25" x2="731.5" y2="651.82" xlink:href="#linear-gradient"/><clipPath id="clip-path"><rect class="cls-1" x="1.41" width="1097" height="768"/></clipPath><linearGradient id="linear-gradient-4" x1="226.88" y1="-88.62" x2="541.55" y2="447.39" gradientUnits="userSpaceOnUse"><stop offset="0"/><stop offset="0.23" stop-color="#050505"/><stop offset="0.49" stop-color="#131313"/><stop offset="0.77" stop-color="#292929"/><stop offset="1" stop-color="#424242"/></linearGradient><linearGradient id="linear-gradient-5" x1="-137.76" y1="37.36" x2="162.68" y2="549.14" gradientTransform="matrix(0.97, -0.23, 0.23, 0.97, 42.44, -98.17)" xlink:href="#linear-gradient"/><linearGradient id="linear-gradient-6" x1="821.48" y1="454.99" x2="1050.82" y2="744.77" xlink:href="#linear-gradient"/><linearGradient id="linear-gradient-7" x1="956.93" y1="116.23" x2="756.04" y2="372.23" xlink:href="#linear-gradient"/><clipPath id="clip-path-2"><rect class="cls-2" x="1.41" y="800" width="1097" height="768"/></clipPath><linearGradient id="linear-gradient-9" x1="226.88" y1="711.38" x2="541.55" y2="1247.39" xlink:href="#linear-gradient-4"/><linearGradient id="linear-gradient-10" x1="-320.47" y1="816.19" x2="-20.02" y2="1327.97" gradientTransform="matrix(0.97, -0.23, 0.23, 0.97, 42.44, -98.17)" xlink:href="#linear-gradient"/><linearGradient id="linear-gradient-11" x1="956.93" y1="916.23" x2="756.04" y2="1172.23" xlink:href="#linear-gradient"/><linearGradient id="linear-gradient-12" x1="1072" y1="1185.46" x2="957.89" y2="1007.74" gradientTransform="matrix(0.96, 0.03, 0.03, 0.98, 8.41, -7.38)" gradientUnits="userSpaceOnUse"><stop offset="0" stop-color="#fc9512"/><stop offset="0.35" stop-color="#fd5f35"/><stop offset="0.79" stop-color="#fe225c"/><stop offset="1" stop-color="#ff0a6c"/></linearGradient><clipPath id="clip-path-3"><rect class="cls-3" x="1114.41" y="-1" width="1097" height="768"/></clipPath><linearGradient id="linear-gradient-13" x1="1084.95" y1="425.23" x2="2241.52" y2="425.23" gradientUnits="userSpaceOnUse"><stop offset="0" stop-color="#ee0a79"/><stop offset="0.49" stop-color="#f63842"/><stop offset="1" stop-color="#fe9752"/></linearGradient><linearGradient id="linear-gradient-14" x1="1084.95" y1="237.66" x2="2275.24" y2="237.66" xlink:href="#linear-gradient-13"/></defs><title>bg_dark1_TGL</title><g class="cls-4"><g id="Layer_2" data-name="Layer 2"><rect class="cls-1" x="1.41" width="1097" height="768"/><g class="cls-5"><path class="cls-6" d="M-138.43,65.54C-72.37-46.57,24.33-66.27,141.71-62.11c100.44,3.56,209.32,31,301.55-6.62,92-37.47,155.09-106,254.72-100.86C831.55-162.73,890.27-56.14,883.4,47.76c-9.54,144.06-133.83,216.08-258,206.88C522.57,247,413.71,236.7,322.73,302.47c-83.8,60.57-139.21,194.17-256.54,197C-66.87,502.76-260.6,272.89-138.43,65.54Z"/><path class="cls-7" d="M-389.12,192.62c37-118.62,122.55-158,232.57-179.75C-62.4-5.72,44.79-4,122.33-59c77.3-54.88,121.06-132.33,214.79-149.3,125.67-22.75,203.5,63.53,219.76,161.62,22.55,136-77.28,230-194.76,248.57-97.21,15.34-200.66,29.48-270.89,110.46C26.54,386.89,4.16,523.17-104.28,551.42-227.26,583.46-457.48,412-389.12,192.62Z"/><path class="cls-8" d="M1262.75,570.65c-61.15,74-176,51.86-263.89,83.39-101.31,36.33-182.47,97.68-283.42,146-98,46.9-262.55-31.61-148.89-195.12,44.77-64.4,87.27-110.67,117-187.3,33.08-85.3,54.71-162.18,139-201.7C1035.41,116.12,1430.28,367.91,1262.75,570.65Z"/><path class="cls-9" d="M704.52,59.23C753.89.79,845.18,19.42,915.52-4.95c81-28.07,146.24-76.26,227.09-113.89,78.48-36.53,208.94,27.45,117,156.76-36.22,50.93-70.49,87.44-94.83,148.24-27.09,67.68-45,128.76-112.5,159.52C881.77,423.37,569.29,219.34,704.52,59.23Z"/><g class="cls-10"><path class="cls-11" d="M418.4,854.23c-.95,0-1.92,0-2.88,0C352,853.16,312.39,834.85,306.87,804c-4.37-24.46,13.31-55,49.81-86,40.39-34.29,102.23-68.12,178.84-97.85C600.41,595,646.79,549.78,691.65,506.08,726.3,472.31,762.14,437.4,806.26,412c21.73-12.54,44.17-21.33,65.87-29.83,34.36-13.46,66.81-26.18,96.77-52.46,27.75-24.34,49.18-54.05,69.91-82.78,15.74-21.82,32-44.38,51-64.55,47.37-50.32,99.61-52.81,130.37-32.94,27.38,17.68,47.36,59,21.32,122.09-12,28.95-33.72,50.07-54.78,70.5-18.84,18.28-38.33,37.18-50.75,61.65l-.6-.3.6.3c-13.91,27.39-21,58-27.89,87.61-10.67,45.93-21.71,93.43-58.54,128.44-41.19,39.13-111.28,58.46-214.3,59.08-98,.59-168.11,49.24-235.9,96.29C540.71,815.76,485.27,854.23,418.4,854.23Zm760.49-715.08c-26.85,0-58.42,12.57-88.11,44.1-18.92,20.11-35.17,42.64-50.89,64.42-20.77,28.79-42.25,58.56-70.11,83-30.14,26.44-62.69,39.2-97.16,52.7-21.66,8.49-44,17.26-65.69,29.74-44,25.36-79.75,60.22-114.35,93.92-45,43.8-91.44,89.08-156.58,114.36C459.53,651.07,397.82,684.83,357.54,719c-36.12,30.65-53.64,60.73-49.36,84.71,5.4,30.19,44.53,48.11,107.36,49.15l2.86,0c66.46,0,121.72-38.35,180.18-78.93,68-47.17,138.23-95.94,236.65-96.54,102.67-.61,172.46-19.82,213.39-58.71,36.55-34.74,47.53-82,58.16-127.77,6.89-29.68,14-60.37,28-87.91,12.52-24.67,32.09-43.65,51-62,21-20.33,42.63-41.36,54.48-70,25.72-62.3,6.12-103.08-20.81-120.46C1208.36,143.35,1194.41,139.15,1178.89,139.15Z"/></g><g class="cls-10"><path class="cls-11" d="M-48.81,555c-1.75,0-3.48,0-5.2-.09-35.32-1.19-64.37-15.07-79.7-38.07-22.49-33.72-14.83-89.06,52.94-136.68l.38.54-.38-.54c22.53-15.84,44.5-29.62,65.75-42.95,70.76-44.38,131.87-82.71,175.25-171.86C174.59,135.83,186,99.86,198.08,61.77c32.33-101.93,69-217.47,177.82-253.21,105.62-34.7,246,39.76,331.76,123.61C773.39-3.54,804.6,61.26,791.15,105.51c-8.67,28.53-35,47.09-78.36,55.15-41.84,7.79-81.44,4.68-119.74,1.68-66.61-5.22-129.53-10.15-194,43.07-46.44,38.31-88.83,85.42-129.84,131C212,399.91,152.86,465.6,79.85,511.74,35,540.1-9.38,555-48.81,555ZM433.27-198.84a181.8,181.8,0,0,0-57,8.66c-108.2,35.54-144.73,150.73-177,252.35-12.09,38.14-23.51,74.16-37.92,103.75C117.88,255.42,56.62,293.84-14.31,338.33c-21.23,13.32-43.19,27.09-65.7,42.9-67,47.12-74.72,101.68-52.59,134.86,29.91,44.86,112.25,57.39,211.74-5.48,72.85-46,131.92-111.66,189-175.12,41-45.59,83.47-92.73,130-131.1,64.94-53.58,128.12-48.63,195-43.38,38.21,3,77.73,6.1,119.4-1.66,42.79-8,68.81-26.21,77.33-54.23,13.1-43.11-18.76-109-83.15-172C636-136.06,528-198.84,433.27-198.84Z"/></g></g><rect class="cls-2" x="1.41" y="800" width="1097" height="768"/><g class="cls-12"><path class="cls-13" d="M-138.43,865.54C-72.37,753.43,24.33,733.73,141.71,737.89c100.44,3.56,209.32,31,301.55-6.62,92-37.47,155.09-106,254.72-100.86,133.57,6.86,192.29,113.45,185.42,217.35-9.54,144.06-133.83,216.08-258,206.88-102.79-7.62-211.65-17.94-302.63,47.83-83.8,60.57-139.21,194.17-256.54,197C-66.87,1302.76-260.6,1072.89-138.43,865.54Z"/><path class="cls-14" d="M-389.12,992.62c37-118.62,122.55-158,232.57-179.75C-62.4,794.28,44.79,796,122.33,741c77.3-54.88,121.06-132.33,214.79-149.3,125.67-22.75,203.5,63.53,219.76,161.62,22.55,136-77.28,230-194.76,248.57-97.21,15.34-200.66,29.48-270.89,110.46-64.69,74.58-87.07,210.86-195.51,239.11C-227.26,1383.46-457.48,1212-389.12,992.62Z"/><path class="cls-15" d="M704.52,859.23c49.37-58.44,140.66-39.81,211-64.18,81-28.07,146.24-76.26,227.09-113.89,78.48-36.53,208.94,27.45,117,156.76-36.22,50.93-70.49,87.44-94.83,148.24-27.09,67.68-45,128.76-112.5,159.52C881.77,1223.37,569.29,1019.34,704.52,859.23Z"/><path class="cls-16" d="M1207.07,959.45c8.06-39.76,42.54-58.58,47.39-100.49,10.57-91.24-81-140.29-123.1-70.6-21.44,35.44-29.54,79.66-55.15,112-26,32.87-65.26,37.49-97.42,61.19-59.1,43.54-76.2,124-147.86,156.82-165.27,75.65-158.53,173.26-37.54,178,101.23,4,128.65-131.18,258.63-129.24C1263.44,1170.39,1189.53,1045.92,1207.07,959.45Z"/><g class="cls-10"><path class="cls-11" d="M-48.81,1355c-1.75,0-3.48,0-5.2-.09-35.32-1.19-64.37-15.07-79.7-38.07-22.49-33.72-14.83-89.06,52.94-136.68l.38.54-.38-.54c22.53-15.84,44.5-29.62,65.75-43,70.76-44.38,131.87-82.71,175.25-171.86,14.36-29.51,25.77-65.48,37.85-103.57,32.33-101.93,69-217.47,177.82-253.21,105.62-34.7,246,39.76,331.76,123.61,65.73,64.29,96.94,129.09,83.49,173.34-8.67,28.53-35,47.09-78.36,55.15-41.84,7.79-81.44,4.68-119.74,1.68-66.61-5.22-129.53-10.15-194,43.07-46.44,38.31-88.83,85.42-129.84,131C212,1199.91,152.86,1265.6,79.85,1311.74,35,1340.1-9.38,1355-48.81,1355ZM433.27,601.16a181.8,181.8,0,0,0-57,8.66c-108.2,35.54-144.73,150.73-177,252.35-12.09,38.14-23.51,74.16-37.92,103.75-43.55,89.5-104.81,127.92-175.74,172.41-21.23,13.32-43.19,27.09-65.7,42.9-67,47.12-74.72,101.68-52.59,134.86,29.91,44.86,112.25,57.39,211.74-5.48,72.85-46,131.92-111.66,189-175.12,41-45.59,83.47-92.73,130-131.1,64.94-53.58,128.12-48.63,195-43.38,38.21,3,77.73,6.1,119.4-1.66,42.79-8,68.81-26.21,77.33-54.23,13.1-43.11-18.76-109-83.15-172C636,663.94,528,601.16,433.27,601.16Z"/></g></g><g class="cls-17"><path class="cls-18" d="M1114.58,693.77s79.7,8.4,151.22-3.46,116.47-22.23,173.69-42.23,125.66-29.65,173.69-27.42c26.53,1.23,153.25,11.11,195.14-108.19,48-98.56,124.65-95.6,193.1-94.86s190-22.23,222.74-63,9.19-200.83,9.19-200.83l-565,183.78L1558,534.7l-295.27,37L1085,579.16Z"/><path class="cls-19" d="M1196.32,475.41s96-38.53,322.86-36.31S2275.24,73,2275.24,73l-47-72.62s-110.34-12.6-143,88.18-436.27,169.7-436.27,169.7L1608.7,246s-122.22-4-178.41,50.84c-37.8,31.13-23.5,78.55-165.52,96.34-107.28,11.12-179.82,5.93-179.82,5.93l53.13,59.28Z"/></g></g></g></svg>