<svg xmlns="http://www.w3.org/2000/svg" xmlns:xlink="http://www.w3.org/1999/xlink" viewBox="0 0 1096.94 765.41"><defs><style>.cls-1{fill:url(#linear-gradient);}.cls-2{fill:url(#linear-gradient-2);}.cls-3{fill:none;}.cls-4{isolation:isolate;}.cls-5{clip-path:url(#clip-path);}.cls-6{fill:url(#linear-gradient-4);}.cls-7{fill:url(#linear-gradient-5);}.cls-8{mix-blend-mode:overlay;}.cls-9{fill:#fff;}.cls-10{clip-path:url(#clip-path-2);}.cls-11{fill:url(#linear-gradient-7);}.cls-12{fill:url(#linear-gradient-8);}.cls-13{clip-path:url(#clip-path-3);}.cls-14{fill:url(#linear-gradient-9);}.cls-15,.cls-16,.cls-17,.cls-18,.cls-19,.cls-20{opacity:0.15;}.cls-15{fill:url(#linear-gradient-10);}.cls-16{fill:url(#linear-gradient-11);}.cls-17{fill:url(#linear-gradient-12);}.cls-18{fill:url(#linear-gradient-13);}.cls-19{fill:url(#linear-gradient-14);}.cls-20{fill:url(#linear-gradient-15);}.cls-21{fill:url(#linear-gradient-16);}</style><linearGradient id="linear-gradient" x1="-676.78" y1="714.25" x2="-382.5" y2="-148.18" gradientUnits="userSpaceOnUse"><stop offset="0" stop-color="#0c042e"/><stop offset="0.33" stop-color="#221c3a"/><stop offset="1" stop-color="#575757"/></linearGradient><linearGradient id="linear-gradient-2" x1="-676.78" y1="1514.25" x2="-382.5" y2="651.82" xlink:href="#linear-gradient"/><clipPath id="clip-path"><rect class="cls-1" x="-1112.59" width="1097" height="768"/></clipPath><linearGradient id="linear-gradient-4" x1="-292.52" y1="454.99" x2="-63.18" y2="744.77" xlink:href="#linear-gradient"/><linearGradient id="linear-gradient-5" x1="-157.07" y1="116.23" x2="-357.96" y2="372.23" xlink:href="#linear-gradient"/><clipPath id="clip-path-2"><rect class="cls-2" x="-1112.59" y="800" width="1097" height="768"/></clipPath><linearGradient id="linear-gradient-7" x1="-157.07" y1="916.23" x2="-357.96" y2="1172.23" xlink:href="#linear-gradient"/><linearGradient id="linear-gradient-8" x1="-42" y1="1185.46" x2="-156.11" y2="1007.74" gradientTransform="matrix(0.96, 0.03, 0.03, 0.98, -31.92, 25.48)" gradientUnits="userSpaceOnUse"><stop offset="0" stop-color="#fc9512"/><stop offset="0.35" stop-color="#fd5f35"/><stop offset="0.79" stop-color="#fe225c"/><stop offset="1" stop-color="#ff0a6c"/></linearGradient><clipPath id="clip-path-3"><rect class="cls-3" x="0.41" y="-1" width="1097" height="768"/></clipPath><linearGradient id="linear-gradient-9" x1="241.32" y1="-145.99" x2="864.31" y2="933.05" gradientUnits="userSpaceOnUse"><stop offset="0" stop-color="#350662"/><stop offset="1" stop-color="#2e023d"/></linearGradient><linearGradient id="linear-gradient-10" x1="-29.05" y1="425.23" x2="1127.52" y2="425.23" gradientUnits="userSpaceOnUse"><stop offset="0" stop-color="#ee0a79"/><stop offset="0.49" stop-color="#f63842"/><stop offset="1" stop-color="#fe9752"/></linearGradient><linearGradient id="linear-gradient-11" x1="0.58" y1="453.06" x2="1108.11" y2="453.06" xlink:href="#linear-gradient-10"/><linearGradient id="linear-gradient-12" x1="542.09" y1="401.19" x2="1108.11" y2="401.19" xlink:href="#linear-gradient-10"/><linearGradient id="linear-gradient-13" x1="69.04" y1="377.97" x2="903.77" y2="377.97" xlink:href="#linear-gradient-10"/><linearGradient id="linear-gradient-14" x1="-29.05" y1="237.66" x2="1161.24" y2="237.66" xlink:href="#linear-gradient-10"/><linearGradient id="linear-gradient-15" x1="-7.59" y1="261.63" x2="1108.11" y2="261.63" xlink:href="#linear-gradient-10"/><linearGradient id="linear-gradient-16" x1="0.58" y1="376.12" x2="1108.11" y2="376.12" xlink:href="#linear-gradient-10"/></defs><title>bg_purple_TGL</title><g class="cls-4"><g id="Layer_2" data-name="Layer 2"><rect class="cls-1" x="-1112.59" width="1097" height="768"/><g class="cls-5"><path class="cls-6" d="M148.75,570.65c-61.15,74-176,51.86-263.89,83.39-101.31,36.33-182.47,97.68-283.42,146-98,46.9-262.55-31.61-148.89-195.12,44.77-64.4,87.27-110.67,117-187.3,33.08-85.3,54.71-162.18,139-201.7C-78.59,116.12,316.28,367.91,148.75,570.65Z"/><path class="cls-7" d="M-409.48,59.23c49.37-58.44,140.66-39.81,211-64.18C-117.45-33-52.24-81.21,28.61-118.84c78.48-36.53,208.94,27.45,117,156.76-36.22,50.93-70.49,87.44-94.83,148.24-27.09,67.68-45,128.76-112.5,159.52C-232.23,423.37-544.71,219.34-409.48,59.23Z"/><g class="cls-8"><path class="cls-9" d="M-695.6,854.23c-.95,0-1.92,0-2.88,0C-762,853.16-801.61,834.85-807.13,804c-4.37-24.46,13.31-55,49.81-86,40.39-34.29,102.23-68.12,178.84-97.85,64.89-25.18,111.27-70.37,156.13-114.07,34.65-33.77,70.49-68.68,114.61-94.12,21.73-12.54,44.17-21.33,65.87-29.83,34.36-13.46,66.81-26.18,96.77-52.46,27.75-24.34,49.18-54.05,69.91-82.78,15.74-21.82,32-44.38,51-64.55C23.18,132,75.42,129.53,106.18,149.4c27.38,17.68,47.36,59,21.32,122.09-12,28.95-33.72,50.07-54.78,70.5C53.88,360.27,34.39,379.17,22,403.64l-.6-.3.6.3C8.06,431,1,461.65-5.92,491.25c-10.67,45.93-21.71,93.43-58.54,128.44-41.19,39.13-111.28,58.46-214.3,59.08-98,.59-168.11,49.24-235.9,96.29C-573.29,815.76-628.73,854.23-695.6,854.23ZM64.89,139.15c-26.85,0-58.42,12.57-88.11,44.1-18.92,20.11-35.17,42.64-50.89,64.42-20.77,28.79-42.25,58.56-70.11,83-30.14,26.44-62.69,39.2-97.16,52.7-21.66,8.49-44.05,17.26-65.69,29.74-44,25.36-79.75,60.22-114.35,93.92-44.95,43.8-91.44,89.08-156.58,114.36-76.47,29.68-138.18,63.44-178.46,97.63-36.12,30.65-53.64,60.73-49.36,84.71,5.4,30.19,44.53,48.11,107.36,49.15l2.86,0c66.46,0,121.72-38.35,180.18-78.93,68-47.17,138.23-95.94,236.65-96.54,102.67-.61,172.46-19.82,213.39-58.71C-28.83,584-17.85,536.69-7.22,491c6.89-29.68,14-60.37,28-87.91,12.52-24.67,32.09-43.65,51-62,21-20.33,42.63-41.36,54.48-70,25.72-62.3,6.12-103.08-20.81-120.46C94.36,143.35,80.41,139.15,64.89,139.15Z"/></g></g><rect class="cls-2" x="-1112.59" y="800" width="1097" height="768"/><g class="cls-10"><path class="cls-11" d="M-409.48,859.23c49.37-58.44,140.66-39.81,211-64.18,81-28.07,146.24-76.26,227.09-113.89,78.48-36.53,208.94,27.45,117,156.76-36.22,50.93-70.49,87.44-94.83,148.24-27.09,67.68-45,128.76-112.5,159.52C-232.23,1223.37-544.71,1019.34-409.48,859.23Z"/><path class="cls-12" d="M93.07,959.45c8.06-39.76,42.54-58.58,47.39-100.49,10.57-91.24-81-140.29-123.1-70.6C-4.08,823.8-12.18,868-37.79,900.41c-26,32.87-65.26,37.49-97.42,61.19-59.1,43.54-76.2,124-147.86,156.82-165.27,75.65-158.53,173.26-37.54,178,101.23,4,128.65-131.18,258.63-129.24C149.44,1170.39,75.53,1045.92,93.07,959.45Z"/></g><g class="cls-13"><rect class="cls-14" x="0.58" y="-7" width="1104.46" height="801.06"/><path class="cls-15" d="M.58,693.77s79.7,8.4,151.22-3.46,116.47-22.23,173.69-42.23,125.66-29.65,173.69-27.42c26.53,1.23,153.25,11.11,195.14-108.19,48-98.56,124.65-95.6,193.1-94.86s190-22.23,222.74-63,9.19-200.83,9.19-200.83l-565,183.78L444,534.7l-295.27,37L-29,579.16Z"/><path class="cls-16" d="M.58,638.44s142,48.17,317.75,59.29c125.67,6.66,287.1,21.49,404.6-41.5,105.23-57.8,106.26-137.09,113.41-163.77s2-112.64,101.15-108.93,145.17-92.74,156.87-112.69S1108.11,202,1108.11,202L719.86,304.24,125.23,597.69Z"/><path class="cls-17" d="M542.09,566.56s148.14-67.43,241.12-63.73,198.21-9.63,260.53-43.72,64.37-52.61,64.37-52.61V235.81L773,299.79,568.65,365.74Z"/><path class="cls-18" d="M69,482.82s82.76,14.83,152.23-28.15c55.17-34.83,71.52-89.67,77.65-100.79s29.63-124.49,220.69-127.45c164.74-2.56,384.16-11.86,384.16-11.86L847.58,322S818,431.69,615.65,429.47s-260.54,111.9-260.54,111.9Z"/><path class="cls-19" d="M82.32,475.41s96-38.53,322.86-36.31S1161.24,73,1161.24,73l-47-72.62s-110.34-12.6-143,88.18-436.27,169.7-436.27,169.7L494.7,246s-122.22-4-178.41,50.84c-37.8,31.13-23.5,78.55-165.52,96.34C43.49,404.28-29,399.09-29,399.09l53.13,59.28Z"/><path class="cls-20" d="M-7.59,268.67s64.8,51.41,135.89,66.69c55.17,11.86,119.54,17,166.53-29.64s73.57-74.85,188-91.15S677,199,764.82,121.94c0,0,40.87-40,51.08-128.94h290.17l2,100L668.78,271.63,457.29,491,100.71,530.25-7.59,425Z"/><path class="cls-21" d="M114,476.16c13.28,5.92,68.57,27.1,126.69,30.38,92,5.19,105.69-23,118.52-37.79,27.59-31.87,40.87-109.68,40.87-109.68s18.39-81.51,65.39-105.23,63.34-21.49,90.93-23.71,67.43,3.71,144.06-19.27c62.07-18.6,127.48-69.78,150.11-88.56a276.58,276.58,0,0,1,26.54-19.49c11.3-7.32,25.24-15.59,33.82-17.92,0,0,35.76-11.12,67.44-9.63s87.86,4.44,110.34-12.6c10-7.61,19.41-23.72,19.41-23.72V242.73S1104,295.34,1007,313.87s-157.34,17.78-174.71,17.78-102.17,0-146.1,34.09-54.15,60-72.54,100S569.67,585.83,485.89,594.72s-165.51,4.45-262.58,21.49C169.16,625.84,94.58,652.52.58,713.29V393.16s57.22,65.95,113.41,83"/></g></g></g></svg>