<?xml version="1.0" encoding="utf-8"?>
<!-- Generator: Adobe Illustrator 22.0.0, SVG Export Plug-In . SVG Version: 6.00 Build 0)  -->
<svg version="1.1" id="Layer_1" xmlns="http://www.w3.org/2000/svg" xmlns:xlink="http://www.w3.org/1999/xlink"  viewBox="0 0 1096.9 765.4" >
<style type="text/css">
	.st0{clip-path:url(#SVGID_2_);}
	.st1{fill:url(#SVGID_3_);}
	.st2{fill:url(#SVGID_4_);}
	.st3{fill:url(#SVGID_5_);}
	.st4{fill:url(#SVGID_6_);}
	.st5{fill:url(#SVGID_7_);}
	.st6{fill:url(#SVGID_8_);}
	.st7{fill:url(#SVGID_9_);}
	.st8{fill:url(#SVGID_10_);}
	.st9{fill:url(#SVGID_11_);}
	.st10{opacity:0.24;fill:#F50057;enable-background:new    ;}
</style>
<title>bg_red_TGL</title>
<g>
	<g id="Layer_1_1_">
		<g id="Main_Layout">
			<g>
				<defs>
					<rect id="SVGID_1_" x="1.4" y="-1" width="1096" height="768"/>
				</defs>
				<clipPath id="SVGID_2_">
					<use xlink:href="#SVGID_1_"  style="overflow:visible;"/>
				</clipPath>
				<g class="st0">
					
						<linearGradient id="SVGID_3_" gradientUnits="userSpaceOnUse" x1="365.1009" y1="617.9807" x2="824.8409" y2="42.1508" gradientTransform="matrix(1 0 0 -1 0 768)">
						<stop  offset="0" style="stop-color:#311445"/>
						<stop  offset="0.12" style="stop-color:#401347"/>
						<stop  offset="0.34" style="stop-color:#660F4B"/>
						<stop  offset="0.64" style="stop-color:#A50852"/>
						<stop  offset="1" style="stop-color:#F8005C"/>
					</linearGradient>
					<rect x="-28.6" y="-3" class="st1" width="1161" height="774"/>
					
						<linearGradient id="SVGID_4_" gradientUnits="userSpaceOnUse" x1="228.9213" y1="611.1209" x2="526.1313" y2="196.2609" gradientTransform="matrix(1 0 0 -1 0 768)">
						<stop  offset="0" style="stop-color:#311445"/>
						<stop  offset="8.000000e-02" style="stop-color:#401347"/>
						<stop  offset="0.22" style="stop-color:#660F4B"/>
						<stop  offset="0.42" style="stop-color:#A50852"/>
						<stop  offset="0.66" style="stop-color:#F8005C"/>
						<stop  offset="0.72" style="stop-color:#F8065C"/>
						<stop  offset="0.79" style="stop-color:#F9175D"/>
						<stop  offset="0.87" style="stop-color:#FB335F"/>
						<stop  offset="0.96" style="stop-color:#FE5962"/>
						<stop  offset="1" style="stop-color:#FF7063"/>
					</linearGradient>
					<path class="st2" d="M693.2-3c0,0,66,202.8-140.9,235.2c-115.2,18-18.4,199.4-190,224.6c-232.2,34-213,254.3-390.9,148.6V-3
						H693.2z"/>
					
						<linearGradient id="SVGID_5_" gradientUnits="userSpaceOnUse" x1="175.9709" y1="670.8307" x2="470.5509" y2="306.1107" gradientTransform="matrix(1 0 0 -1 0 768)">
						<stop  offset="0" style="stop-color:#311445"/>
						<stop  offset="8.000000e-02" style="stop-color:#401347"/>
						<stop  offset="0.22" style="stop-color:#660F4B"/>
						<stop  offset="0.42" style="stop-color:#A50852"/>
						<stop  offset="0.66" style="stop-color:#F8005C"/>
						<stop  offset="0.72" style="stop-color:#F8065C"/>
						<stop  offset="0.79" style="stop-color:#F9175D"/>
						<stop  offset="0.87" style="stop-color:#FB335F"/>
						<stop  offset="0.96" style="stop-color:#FE5962"/>
						<stop  offset="1" style="stop-color:#FF7063"/>
					</linearGradient>
					<path class="st3" d="M-28.6,501.6c137,52.4,265.7-10.3,345.3-114c91.5-119.2,2.3-211,188.7-200.2
						C648.4,195.7,651.1,55.8,626.3-3H-28.6V501.6z"/>
					
						<linearGradient id="SVGID_6_" gradientUnits="userSpaceOnUse" x1="138.6636" y1="733.9358" x2="316.6836" y2="466.1358" gradientTransform="matrix(1 0 0 -1 0 768)">
						<stop  offset="0" style="stop-color:#311445"/>
						<stop  offset="0.12" style="stop-color:#401347"/>
						<stop  offset="0.34" style="stop-color:#660F4B"/>
						<stop  offset="0.64" style="stop-color:#A50852"/>
						<stop  offset="1" style="stop-color:#F8005C"/>
					</linearGradient>
					<path class="st4" d="M-28.6,425.8c39.8-59.3,66.9-48,180.4-18.6c121,31.4,180.9-126.9,140.9-201.2s21.7-137.8,142.4-77.4
						c119.5,59.7,149.4-82,106-131.6H-28.6V425.8z"/>
					
						<linearGradient id="SVGID_7_" gradientUnits="userSpaceOnUse" x1="49.9883" y1="825.3087" x2="361.5083" y2="404.2887" gradientTransform="matrix(1 0 0 -1 0 768)">
						<stop  offset="0" style="stop-color:#311445"/>
						<stop  offset="8.000000e-02" style="stop-color:#401347"/>
						<stop  offset="0.22" style="stop-color:#660F4B"/>
						<stop  offset="0.42" style="stop-color:#A50852"/>
						<stop  offset="0.66" style="stop-color:#F8005C"/>
						<stop  offset="0.72" style="stop-color:#F8065C"/>
						<stop  offset="0.79" style="stop-color:#F9175D"/>
						<stop  offset="0.87" style="stop-color:#FB335F"/>
						<stop  offset="0.96" style="stop-color:#FE5962"/>
						<stop  offset="1" style="stop-color:#FF7063"/>
					</linearGradient>
					<path class="st5" d="M-27.8,326.7c0,0,247.6,57.4,250.8-150.1C226.1-24.6,435.1,117.7,452.1-3H-28.6L-27.8,326.7z"/>
					
						<linearGradient id="SVGID_8_" gradientUnits="userSpaceOnUse" x1="961.5762" y1="-5.184" x2="352.9463" y2="573.0161" gradientTransform="matrix(1 0 0 -1 0 768)">
						<stop  offset="0" style="stop-color:#311445"/>
						<stop  offset="8.000000e-02" style="stop-color:#401347"/>
						<stop  offset="0.22" style="stop-color:#660F4B"/>
						<stop  offset="0.42" style="stop-color:#A50852"/>
						<stop  offset="0.66" style="stop-color:#F8005C"/>
						<stop  offset="0.72" style="stop-color:#F8065C"/>
						<stop  offset="0.79" style="stop-color:#F9175D"/>
						<stop  offset="0.87" style="stop-color:#FB335F"/>
						<stop  offset="0.96" style="stop-color:#FE5962"/>
						<stop  offset="1" style="stop-color:#FF7063"/>
					</linearGradient>
					<path class="st6" d="M766.4-3c0,0-94.4,79,17,196.6s94.5,286.4-38.7,314.2s-311.1-142-407.1,35.6
						C272.8,663.4,94.4,727.7-28.6,619.3V771h1161V-3H766.4z"/>
					
						<linearGradient id="SVGID_9_" gradientUnits="userSpaceOnUse" x1="1044.1124" y1="-64.1374" x2="581.2625" y2="361.5627" gradientTransform="matrix(1 0 0 -1 0 768)">
						<stop  offset="0" style="stop-color:#311445"/>
						<stop  offset="8.000000e-02" style="stop-color:#401347"/>
						<stop  offset="0.22" style="stop-color:#660F4B"/>
						<stop  offset="0.42" style="stop-color:#A50852"/>
						<stop  offset="0.66" style="stop-color:#F8005C"/>
						<stop  offset="0.72" style="stop-color:#F8065C"/>
						<stop  offset="0.79" style="stop-color:#F9175D"/>
						<stop  offset="0.87" style="stop-color:#FB335F"/>
						<stop  offset="0.96" style="stop-color:#FE5962"/>
						<stop  offset="1" style="stop-color:#FF7063"/>
					</linearGradient>
					<path class="st7" d="M1132.4,247.8c0,0-220.4-95.4-232.2,185.7c-7.6,179.8-123.1,192.1-342.4,137.9
						C330.2,515.2,254,771,254,771h878.4L1132.4,247.8z"/>
					
						<linearGradient id="SVGID_10_" gradientUnits="userSpaceOnUse" x1="1060.017" y1="-128.7126" x2="685.397" y2="301.6374" gradientTransform="matrix(1 0 0 -1 0 768)">
						<stop  offset="0" style="stop-color:#311445"/>
						<stop  offset="8.000000e-02" style="stop-color:#401347"/>
						<stop  offset="0.22" style="stop-color:#660F4B"/>
						<stop  offset="0.42" style="stop-color:#A50852"/>
						<stop  offset="0.66" style="stop-color:#F8005C"/>
						<stop  offset="0.72" style="stop-color:#F8065C"/>
						<stop  offset="0.79" style="stop-color:#F9175D"/>
						<stop  offset="0.87" style="stop-color:#FB335F"/>
						<stop  offset="0.96" style="stop-color:#FE5962"/>
						<stop  offset="1" style="stop-color:#FF7063"/>
					</linearGradient>
					<path class="st8" d="M386.1,771c0,0,8.3-110.9,131.5-131.6c114.4-19.1,284.4,106.8,338.6-21.7s189.4-22.8,179.6-179.6
						c-6.5-104.7,96.7-106.8,96.7-106.8V771H386.1z"/>
					
						<linearGradient id="SVGID_11_" gradientUnits="userSpaceOnUse" x1="1101.0138" y1="854.2543" x2="817.8738" y2="445.4243" gradientTransform="matrix(1 0 0 -1 0 768)">
						<stop  offset="0" style="stop-color:#311445"/>
						<stop  offset="8.000000e-02" style="stop-color:#401347"/>
						<stop  offset="0.22" style="stop-color:#660F4B"/>
						<stop  offset="0.42" style="stop-color:#A50852"/>
						<stop  offset="0.66" style="stop-color:#F8005C"/>
						<stop  offset="0.72" style="stop-color:#F8065C"/>
						<stop  offset="0.79" style="stop-color:#F9175D"/>
						<stop  offset="0.87" style="stop-color:#FB335F"/>
						<stop  offset="0.96" style="stop-color:#FE5962"/>
						<stop  offset="1" style="stop-color:#FF7063"/>
					</linearGradient>
					<path class="st9" d="M798.9-3c0,0-66.6,99.1,54.1,144s232.1-65,279.4,80.5V-3H798.9z"/>
					<g>
						<path class="st10" d="M603.8-3c0,0,53.5,238.8-176.5,161c-91.4-30.9-177.4-7.7-173.4,139.3c6,218.5-282.6,170.3-282.6,170.3
							V-3H603.8z"/>
						<path class="st10" d="M100.7,771c0,0,71.7-210.8,234.5-137.2c200.8,90.8,147.4-80.2,296.6-82.6
							c106.2-1.7,142.8,141.2,275.4,117.7c131.4-23.3,7.7-288.3,225.2-243V771H100.7z"/>
						<path class="st10" d="M785.4-3c0,0-85.6,150.3,52.8,187.5s294.2-85.9,294.2-85.9V-3H785.4z"/>
					</g>
				</g>
			</g>
		</g>
	</g>
</g>
</svg>
