<svg xmlns="http://www.w3.org/2000/svg" xmlns:xlink="http://www.w3.org/1999/xlink" viewBox="0 0 1096.94 765.41"><defs><style>.cls-1{fill:none;}.cls-2{fill:url(#linear-gradient);}.cls-3{fill:url(#linear-gradient-2);}.cls-4{isolation:isolate;}.cls-5{clip-path:url(#clip-path);}.cls-6{fill:url(#linear-gradient-3);}.cls-7{fill:url(#linear-gradient-4);}.cls-8{fill:url(#linear-gradient-5);}.cls-9{fill:url(#linear-gradient-6);}.cls-10{fill:url(#linear-gradient-7);}.cls-11{fill:url(#linear-gradient-8);}.cls-12{fill:url(#linear-gradient-9);}.cls-13{fill:url(#linear-gradient-10);}.cls-14{fill:url(#linear-gradient-11);}.cls-15{mix-blend-mode:color-dodge;}.cls-16{fill:#f50057;opacity:0.24;}.cls-16,.cls-19{mix-blend-mode:overlay;}.cls-17{clip-path:url(#clip-path-2);}.cls-18{fill:url(#linear-gradient-13);}.cls-20{fill:#fff;}.cls-21{clip-path:url(#clip-path-3);}.cls-22{fill:url(#linear-gradient-15);}.cls-23{fill:url(#linear-gradient-16);}.cls-24{fill:url(#linear-gradient-17);}</style><linearGradient id="linear-gradient" x1="-676.78" y1="-85.75" x2="-382.5" y2="-948.18" gradientUnits="userSpaceOnUse"><stop offset="0" stop-color="#0c042e"/><stop offset="0.33" stop-color="#221c3a"/><stop offset="1" stop-color="#575757"/></linearGradient><linearGradient id="linear-gradient-2" x1="-676.78" y1="714.25" x2="-382.5" y2="-148.18" xlink:href="#linear-gradient"/><clipPath id="clip-path"><rect class="cls-1" x="1.41" y="-1" width="1096" height="768"/></clipPath><linearGradient id="linear-gradient-3" x1="365.1" y1="150.02" x2="824.84" y2="725.85" gradientUnits="userSpaceOnUse"><stop offset="0" stop-color="#311445"/><stop offset="0.12" stop-color="#401347"/><stop offset="0.34" stop-color="#660f4b"/><stop offset="0.64" stop-color="#a50852"/><stop offset="1" stop-color="#f8005c"/></linearGradient><linearGradient id="linear-gradient-4" x1="228.92" y1="156.88" x2="526.13" y2="571.74" gradientUnits="userSpaceOnUse"><stop offset="0" stop-color="#311445"/><stop offset="0.08" stop-color="#401347"/><stop offset="0.22" stop-color="#660f4b"/><stop offset="0.42" stop-color="#a50852"/><stop offset="0.66" stop-color="#f8005c"/><stop offset="0.72" stop-color="#f8065c"/><stop offset="0.79" stop-color="#f9175d"/><stop offset="0.87" stop-color="#fb335f"/><stop offset="0.96" stop-color="#fe5962"/><stop offset="1" stop-color="#ff7063"/></linearGradient><linearGradient id="linear-gradient-5" x1="175.97" y1="97.17" x2="470.55" y2="461.89" xlink:href="#linear-gradient-4"/><linearGradient id="linear-gradient-6" x1="138.67" y1="34.06" x2="316.69" y2="301.86" xlink:href="#linear-gradient-3"/><linearGradient id="linear-gradient-7" x1="49.99" y1="-57.31" x2="361.51" y2="363.71" xlink:href="#linear-gradient-4"/><linearGradient id="linear-gradient-8" x1="961.58" y1="773.18" x2="352.95" y2="194.98" xlink:href="#linear-gradient-4"/><linearGradient id="linear-gradient-9" x1="1044.11" y1="832.14" x2="581.26" y2="406.44" xlink:href="#linear-gradient-4"/><linearGradient id="linear-gradient-10" x1="1060.02" y1="896.71" x2="685.4" y2="466.36" xlink:href="#linear-gradient-4"/><linearGradient id="linear-gradient-11" x1="1101.02" y1="-86.25" x2="817.88" y2="322.58" xlink:href="#linear-gradient-4"/><clipPath id="clip-path-2"><rect class="cls-2" x="-1112.59" y="-800" width="1097" height="768"/></clipPath><linearGradient id="linear-gradient-13" x1="-292.52" y1="-345.01" x2="-63.18" y2="-55.23" xlink:href="#linear-gradient"/><clipPath id="clip-path-3"><rect class="cls-3" x="-1112.59" width="1097" height="768"/></clipPath><linearGradient id="linear-gradient-15" x1="-292.52" y1="454.99" x2="-63.18" y2="744.77" xlink:href="#linear-gradient"/><linearGradient id="linear-gradient-16" x1="-157.07" y1="116.23" x2="-357.96" y2="372.23" xlink:href="#linear-gradient"/><linearGradient id="linear-gradient-17" x1="-42" y1="385.46" x2="-156.11" y2="207.74" gradientTransform="matrix(0.96, 0.03, 0.03, 0.98, -8.32, 6.2)" gradientUnits="userSpaceOnUse"><stop offset="0" stop-color="#fc9512"/><stop offset="0.35" stop-color="#fd5f35"/><stop offset="0.79" stop-color="#fe225c"/><stop offset="1" stop-color="#ff0a6c"/></linearGradient></defs><title>bg_red_TGL</title><g class="cls-4"><g id="Layer_1" data-name="Layer 1"><g id="Main_Layout" data-name="Main Layout"><g class="cls-5"><rect class="cls-6" x="-28.59" y="-3" width="1161" height="774"/><path class="cls-7" d="M693.19-3s66,202.79-140.91,235.19c-115.2,18-18.44,199.41-189.95,224.57-232.2,34.05-213,254.3-390.92,148.6V-3Z"/><path class="cls-8" d="M-28.59,501.6c137,52.43,265.68-10.31,345.26-114,91.49-119.19,2.31-211,188.7-200.21C648.37,195.72,651.11,55.82,626.28-3H-28.59Z"/><path class="cls-9" d="M-28.59,425.8c39.83-59.34,66.9-48,180.39-18.58C272.8,438.58,332.72,280.28,292.67,206s21.67-137.77,142.41-77.4c119.45,59.72,149.4-82,106-131.58H-28.59Z"/><path class="cls-10" d="M-27.77,326.72S219.81,384.16,223,176.57C226.1-24.65,435.08,117.74,452.08-3H-28.59Z"/><path class="cls-11" d="M766.36-3s-94.43,79,17,196.6S877.81,480,744.68,507.84s-311.14-142-407.12,35.6C272.76,663.37,94.43,727.66-28.59,619.3V771h1161V-3Z"/><path class="cls-12" d="M1132.41,247.79s-220.36-95.41-232.2,185.75c-7.57,179.83-123.06,192.08-342.44,137.9C330.17,515.24,254,771,254,771h878.44Z"/><path class="cls-13" d="M386.06,771s8.26-110.94,131.51-131.58C631.93,620.27,802,746.23,856.14,617.75S1045.51,595,1035.71,438.18c-6.54-104.66,96.7-106.81,96.7-106.81V771Z"/><path class="cls-14" d="M798.86-3S732.3,96.07,853,141s232.11-65,279.37,80.5V-3Z"/><g class="cls-15"><path class="cls-16" d="M603.82-3s53.53,238.79-176.48,161c-91.4-30.91-177.4-7.73-173.37,139.32C260,515.84-28.59,467.59-28.59,467.59V-3Z"/><path class="cls-16" d="M100.72,771s71.73-210.75,234.46-137.18C536,724.6,482.6,553.63,631.82,551.18,738,549.44,774.61,692.37,907.22,668.83c131.39-23.32,7.74-288.33,225.19-243V771Z"/><path class="cls-16" d="M785.42-3s-85.61,150.31,52.8,187.46,294.19-85.91,294.19-85.91V-3Z"/></g></g></g></g><g id="Layer_2" data-name="Layer 2"><rect class="cls-2" x="-1112.59" y="-800" width="1097" height="768"/><g class="cls-17"><path class="cls-18" d="M148.75-229.35c-61.15,74-176,51.86-263.89,83.39C-216.45-109.63-297.61-48.28-398.56,0c-98,46.9-262.55-31.61-148.89-195.12,44.77-64.4,87.27-110.67,117-187.3,33.08-85.3,54.71-162.18,139-201.7C-78.59-683.88,316.28-432.09,148.75-229.35Z"/><g class="cls-19"><path class="cls-20" d="M-695.6,54.23c-.95,0-1.92,0-2.88,0C-762,53.16-801.61,34.85-807.13,4c-4.37-24.46,13.31-55,49.81-86,40.39-34.29,102.23-68.12,178.84-97.85,64.89-25.18,111.27-70.37,156.13-114.07,34.65-33.77,70.49-68.68,114.61-94.12,21.73-12.54,44.17-21.33,65.87-29.83,34.36-13.46,66.81-26.18,96.77-52.46,27.75-24.34,49.18-54.05,69.91-82.78,15.74-21.82,32-44.38,51-64.55C23.18-668,75.42-670.47,106.18-650.6c27.38,17.68,47.36,59,21.32,122.09-12,28.95-33.72,50.07-54.78,70.5C53.88-439.73,34.39-420.83,22-396.36l-.6-.3.6.3C8.06-369,1-338.35-5.92-308.75c-10.67,45.93-21.71,93.43-58.54,128.44-41.19,39.13-111.28,58.46-214.3,59.08-98,.59-168.11,49.24-235.9,96.29C-573.29,15.76-628.73,54.23-695.6,54.23ZM64.89-660.85c-26.85,0-58.42,12.57-88.11,44.1-18.92,20.11-35.17,42.64-50.89,64.42-20.77,28.79-42.25,58.56-70.11,83-30.14,26.44-62.69,39.2-97.16,52.7-21.66,8.49-44.05,17.26-65.69,29.74-44,25.36-79.75,60.22-114.35,93.92-44.95,43.8-91.44,89.08-156.58,114.36C-654.47-148.93-716.18-115.17-756.46-81c-36.12,30.65-53.64,60.73-49.36,84.71,5.4,30.19,44.53,48.11,107.36,49.15l2.86,0c66.46,0,121.72-38.35,180.18-78.93,68-47.17,138.23-95.94,236.65-96.54,102.67-.61,172.46-19.82,213.39-58.71C-28.83-216-17.85-263.31-7.22-309c6.89-29.68,14-60.37,28-87.91,12.52-24.67,32.09-43.65,51-62,21-20.33,42.63-41.36,54.48-70,25.72-62.3,6.12-103.08-20.81-120.46C94.36-656.65,80.41-660.85,64.89-660.85Z"/></g></g><rect class="cls-3" x="-1112.59" width="1097" height="768"/><g class="cls-21"><path class="cls-22" d="M148.75,570.65c-61.15,74-176,51.86-263.89,83.39-101.31,36.33-182.47,97.68-283.42,146-98,46.9-262.55-31.61-148.89-195.12,44.77-64.4,87.27-110.67,117-187.3,33.08-85.3,54.71-162.18,139-201.7C-78.59,116.12,316.28,367.91,148.75,570.65Z"/><path class="cls-23" d="M-409.48,59.23c49.37-58.44,140.66-39.81,211-64.18C-117.45-33-52.24-81.21,28.61-118.84c78.48-36.53,208.94,27.45,117,156.76-36.22,50.93-70.49,87.44-94.83,148.24-27.09,67.68-45,128.76-112.5,159.52C-232.23,423.37-544.71,219.34-409.48,59.23Z"/><path class="cls-24" d="M93.07,159.45c8.06-39.76,42.54-58.58,47.39-100.49C151-32.28,59.5-81.33,17.36-11.64-4.08,23.8-12.18,68-37.79,100.41c-26,32.87-65.26,37.49-97.42,61.19-59.1,43.54-76.2,124-147.86,156.82-165.27,75.65-158.53,173.26-37.54,178.05C-219.38,500.48-192,365.29-62,367.23,149.44,370.39,75.53,245.92,93.07,159.45Z"/><g class="cls-19"><path class="cls-20" d="M-695.6,854.23c-.95,0-1.92,0-2.88,0C-762,853.16-801.61,834.85-807.13,804c-4.37-24.46,13.31-55,49.81-86,40.39-34.29,102.23-68.12,178.84-97.85,64.89-25.18,111.27-70.37,156.13-114.07,34.65-33.77,70.49-68.68,114.61-94.12,21.73-12.54,44.17-21.33,65.87-29.83,34.36-13.46,66.81-26.18,96.77-52.46,27.75-24.34,49.18-54.05,69.91-82.78,15.74-21.82,32-44.38,51-64.55C23.18,132,75.42,129.53,106.18,149.4c27.38,17.68,47.36,59,21.32,122.09-12,28.95-33.72,50.07-54.78,70.5C53.88,360.27,34.39,379.17,22,403.64l-.6-.3.6.3C8.06,431,1,461.65-5.92,491.25c-10.67,45.93-21.71,93.43-58.54,128.44-41.19,39.13-111.28,58.46-214.3,59.08-98,.59-168.11,49.24-235.9,96.29C-573.29,815.76-628.73,854.23-695.6,854.23ZM64.89,139.15c-26.85,0-58.42,12.57-88.11,44.1-18.92,20.11-35.17,42.64-50.89,64.42-20.77,28.79-42.25,58.56-70.11,83-30.14,26.44-62.69,39.2-97.16,52.7-21.66,8.49-44.05,17.26-65.69,29.74-44,25.36-79.75,60.22-114.35,93.92-44.95,43.8-91.44,89.08-156.58,114.36-76.47,29.68-138.18,63.44-178.46,97.63-36.12,30.65-53.64,60.73-49.36,84.71,5.4,30.19,44.53,48.11,107.36,49.15l2.86,0c66.46,0,121.72-38.35,180.18-78.93,68-47.17,138.23-95.94,236.65-96.54,102.67-.61,172.46-19.82,213.39-58.71C-28.83,584-17.85,536.69-7.22,491c6.89-29.68,14-60.37,28-87.91,12.52-24.67,32.09-43.65,51-62,21-20.33,42.63-41.36,54.48-70,25.72-62.3,6.12-103.08-20.81-120.46C94.36,143.35,80.41,139.15,64.89,139.15Z"/></g></g></g></g></svg>