<svg xmlns="http://www.w3.org/2000/svg" viewBox="0 0 44.64 49.87"><defs><style>.cls-1{fill:#fff;}</style></defs><title>logo_akk_TGL</title><g id="Layer_2" data-name="Layer 2"><g id="Layer_1-2" data-name="Layer 1"><path class="cls-1" d="M25.61,23.17l11-9.73c.85-.75,1.69-1.51,2.56-2.24,1.56-1.3,3-.88,3.63,1s1.09,3.59,1.6,5.39a5.65,5.65,0,0,1-2.46,6.69L31.61,31.17c1.25,1.61,2.43,3.12,3.6,4.64a2.78,2.78,0,0,1,.29,3.43,37.15,37.15,0,0,1-2.77,3.82c-.9,1-2.14.93-3.19-.24-1.62-1.79-3.21-3.61-4.75-5.47-.65-.77-1.12-.94-2.06-.3C16.81,41.05,10.83,45,4.88,49c-1.08.72-2.15,1.3-3.42.61S0,47.63,0,46.26Q.08,26.07.07,5.88C.07,3,1.39,1,3.77.28s4.57,0,6.3,2.35q7.41,9.89,14.85,19.74C25.1,22.6,25.3,22.81,25.61,23.17ZM15.23,40.31c-4-1-5.53-3.48-5.88-7C8.92,28.9,8.2,24.56,7.79,20.19A7.12,7.12,0,0,0,5.58,15.4c-.82-.79-1.55-1.54-2.81-1S1.53,15.87,1.53,17c0,5.91,0,11.83,0,17.75,0,4,0,8,0,12,0,1.48.8,2.16,1.85,1.48C7.23,45.65,11.06,43.07,15.23,40.31Zm-3-3.3c1.85,2,4.26,2.41,6.34,1q11.28-7.47,22.52-15a4.06,4.06,0,0,0,1.81-5c-.43-1.57-.92-3.12-1.38-4.69-.51-1.75-.65-1.8-2.05-.56L16.4,33.29C15,34.52,13.65,35.77,12.27,37ZM24.43,24.23c-.43-.6-.78-1.13-1.16-1.63L14.53,11c-2-2.72-4.08-5.46-6.15-8.16A3.48,3.48,0,0,0,4.53,1.62C3.08,2,1.84,2.84,1.71,4.32c-.23,2.91-.15,5.85-.21,9,2.29-1.12,3.85-.4,5.22,1.18,2.71,3.14,5.45,6.25,8.19,9.36,1.42,1.62,2.86,3.23,4.36,4.93C21,27.21,22.69,25.75,24.43,24.23Zm-6.27,5.53-8.71-9.9L9.2,20c.66,5.19,1.32,10.38,2,15.93ZM30.36,32l-5.3,3.52c1.91,2.16,3.69,4.24,5.56,6.25a1.3,1.3,0,0,0,1.28,0,17.21,17.21,0,0,0,2.22-3.1A2.18,2.18,0,0,0,34,36.76C32.93,35.15,31.66,33.65,30.36,32Z"/></g></g></svg>